# xmcd
#
# Track frame offsets:
#	150
#	7561
#	19124
#	23165
#	40086
#	67380
#	91126
#	100607
#	122845
#	129172
#	144465
#	150364
#
# Disc length: 2173 seconds
#
# Revision: 4
# Processed by: cddbd v1.5.2PL0 Copyright (c) Steve Scherf et al.
# Submitted via: audiograbber 1.83.01
#
DISCID=85087b0c
DTITLE=Dead Can Dance - Aion
DYEAR=1990
DGENRE=Alternative
TTITLE0=The Arrival and the Reunion
TTITLE1=Saltarello (Instrumental Danse - Anonymous - Italian 14th Century
TTITLE2=Mephisto
TTITLE3=The Song of the Sibyl (Traditional Version - Catalan - 16th Century)
TTITLE4=Fortune Presents Gifts Not According to the Book
TTITLE5=As the Bell Rings the Maypole Spins
TTITLE6=The End of Words
TTITLE7=Black Sun
TTITLE8=Wilderness
TTITLE9=The Promised Womb
TTITLE10=The Garden of Zephirus
TTITLE11=Radharc
EXTD=YEAR: 1990
EXTT0=
EXTT1=
EXTT2=
EXTT3=
EXTT4=
EXTT5=
EXTT6=
EXTT7=
EXTT8=
EXTT9=
EXTT10=
EXTT11=
PLAYORDER=
